<?xml version="1.0" standalone="no"?>
<!DOCTYPE svg PUBLIC "-//W3C//DTD SVG 20010904//EN"
 "http://www.w3.org/TR/2001/REC-SVG-20010904/DTD/svg10.dtd">
<svg version="1.0" xmlns="http://www.w3.org/2000/svg"
 width="512.000000pt" height="512.000000pt" viewBox="0 0 512.000000 512.000000"
 preserveAspectRatio="xMidYMid meet">
<metadata>
Created by potrace 1.14, written by Peter Selinger 2001-2017
</metadata>
<g transform="translate(0.000000,512.000000) scale(0.100000,-0.100000)"
fill="#000000" stroke="none">
<path d="M2448 4625 c-2 -2 -38 -6 -81 -10 -137 -11 -380 -71 -521 -128 -70
-28 -226 -107 -291 -147 -80 -49 -255 -178 -255 -188 0 -4 356 -360 791 -792
1336 -1325 1471 -1459 1884 -1870 342 -340 405 -399 436 -405 43 -8 92 13 111
48 9 17 12 209 12 802 -1 712 -4 872 -20 975 -93 607 -441 1135 -949 1442
-229 139 -450 215 -760 263 -42 7 -351 15 -357 10z"/>
<path d="M523 4055 c-64 -27 -61 15 -58 -910 2 -462 5 -851 8 -865 3 -14 8
-47 12 -75 3 -27 18 -99 32 -160 156 -670 648 -1226 1281 -1449 144 -51 286
-82 472 -101 47 -5 300 -6 325 -1 11 2 52 7 90 10 177 18 426 92 610 181 127
62 208 111 333 204 l103 76 -619 615 c-1787 1775 -2484 2466 -2498 2473 -27
15 -59 16 -91 2z"/>
</g>
</svg>
